<svg xmlns="http://www.w3.org/2000/svg" viewBox="0 0 200 200" width="32" height="32">
  <defs>
    <linearGradient id="bg" x1="0" y1="0" x2="0" y2="1">
      <stop offset="0" stop-color="#2a241c"/>
      <stop offset="1" stop-color="#1a1611"/>
    </linearGradient>
    <linearGradient id="p1" x1="0" y1="0" x2="0" y2="1">
      <stop offset="0" stop-color="#f4e4bf"/>
      <stop offset="1" stop-color="#e0c98b"/>
    </linearGradient>
    <linearGradient id="p2" x1="0" y1="0" x2="0" y2="1">
      <stop offset="0" stop-color="#d8a957"/>
      <stop offset="1" stop-color="#b07e2a"/>
    </linearGradient>
    <clipPath id="clip">
      <rect x="0" y="0" width="200" height="200" rx="44.74" ry="44.74"/>
    </clipPath>
  </defs>
  <rect x="0" y="0" width="200" height="200" rx="44.74" ry="44.74" fill="url(#bg)"/>
  <g clip-path="url(#clip)">
    <g transform="translate(72 40) rotate(7)">
      <rect width="96" height="124" rx="10" fill="url(#p1)" opacity="0.95"/>
    </g>
    <g transform="translate(50 44)">
      <path d="M 10 0 H 90 A 10 10 0 0 1 100 10 V 120 L 50 92 L 0 120 V 10 A 10 10 0 0 1 10 0 Z" fill="url(#p2)"/>
      <g opacity="0.32" stroke="#4a330f" stroke-width="3" stroke-linecap="round">
        <line x1="20" y1="30" x2="80" y2="30"/>
        <line x1="20" y1="46" x2="80" y2="46"/>
        <line x1="20" y1="62" x2="64" y2="62"/>
      </g>
      <path d="M 10 0 H 90 A 10 10 0 0 1 100 10 V 14 H 0 V 10 A 10 10 0 0 1 10 0 Z" fill="rgba(255,255,255,.22)"/>
    </g>
  </g>
  <rect x="0.5" y="0.5" width="199" height="199" rx="44.24" ry="44.24" fill="none" stroke="rgba(255,255,255,.06)"/>
</svg>
